<svg width="1024" height="1024" viewBox="0 0 1024 1024" fill="none" xmlns="http://www.w3.org/2000/svg">
	<path d="M0 0H1024V1024H0V0Z" fill="#03A062"/>
	<path d="M511.5 581.486C503.389 581.486 497.21 575.643 497.21 567.974C497.21 560.305 503.389 554.462 511.5 554.462C519.611 554.462 525.79 560.305 525.79 567.974C525.79 575.643 519.611 581.486 511.5 581.486Z" fill="#161616"/>
	<path fill-rule="evenodd" clip-rule="evenodd" d="M226.85 190C209.084 190 189 204.608 189 225.058V581.486C189 601.937 209.084 616.545 226.85 616.545H452.407C452.407 616.545 448.236 643.198 443.91 661.829C438.503 673.15 432.71 675.706 421.895 677.167H406.06C401.811 677.167 394.473 681.914 394.473 689.583C394.473 697.253 400.653 702 406.06 702H616.94C622.347 702 628.527 697.253 628.527 689.583C628.527 681.914 621.189 677.167 616.94 677.167H601.105C590.29 675.706 584.497 673.15 579.09 661.829C574.764 643.198 570.593 616.545 570.593 616.545H796.15C813.916 616.545 834 601.937 834 581.486V225.058C834 204.608 813.916 190 796.15 190H226.85ZM465.925 677.167H557.075C552.826 669.863 553.985 672.419 551.668 664.75L543.557 617.275H479.443L471.332 664.75C469.015 672.419 470.174 669.863 465.925 677.167ZM227.623 591.712H795.377C801.557 591.712 807.737 586.599 807.737 580.756V543.506H215.263V580.756C215.263 586.599 221.443 591.712 227.623 591.712ZM215.263 518.673H807.737V225.789C807.737 219.946 801.557 214.833 795.377 214.833H227.623C221.443 214.833 215.263 219.946 215.263 225.789V518.673Z" fill="#161616"/>
	<path fill-rule="evenodd" clip-rule="evenodd" d="M428.5 466L525.5 495C533.992 481.409 539.24 477.969 550 477L606.5 297.5C597.467 287.129 594.443 279.65 595.5 266.5L497 236C489.868 249.552 484.282 252.879 474 255L417 434.5C426.725 445.381 430.528 452.257 428.5 466ZM579 285.5L578.5 278L506 256.5C502.599 261.156 491.641 267.733 485 271L449 389C453.416 393.315 464.316 395.381 471.5 395C483.924 392.83 488.159 389.429 494 382C509 359.5 507 345.5 521 332C531.499 321.776 538.125 318.776 551 319C563.778 319.382 570.266 321.912 580.5 329L587 304.5L511 280.5C508.086 278.631 507.073 276.936 508 272C509.066 268.048 510.906 266.583 515.5 266.5L579 285.5ZM539 459L436.5 427L443.5 404C450.048 408.938 457.501 411.162 474.5 412C487.797 410.829 493.13 407.094 502 399.5C517.5 386.228 517 369 530 347.5C533.111 343.103 538.109 336.867 550 336C556.627 334.441 573.659 341.956 575 346L539 459ZM524.5 471L442.5 446L443.5 453.5L518 477L524.5 471Z" fill="#161616"/>
	<path d="M222.648 815.555C237.688 815.555 245.207 806.904 245.207 789.602C245.207 774.534 237.688 767 222.648 767H208.254V815.555H222.648ZM200.305 822V760.555H222.648C242.987 760.555 253.156 770.237 253.156 789.602C253.156 811.201 242.987 822 222.648 822H200.305Z" fill="#161616"/>
	<path d="M268.537 822H260.287L286.369 760.555H295.178L321.389 822H312.58L304.631 802.664H284.307L286.498 796.219H301.967L290.494 768.375L268.537 822Z" fill="#161616"/>
	<path d="M372.993 760.555V767H353.657V822H345.708V767H326.372V760.555H372.993Z" fill="#161616"/>
	<path d="M386.268 822H378.018L404.1 760.555H412.909L439.12 822H430.311L422.362 802.664H402.038L404.229 796.219H419.698L408.225 768.375L386.268 822Z" fill="#161616"/>
	<path d="M449.259 822V760.555H475.47C487.157 760.555 493.001 765.324 493.001 774.863C493.001 781.853 489.191 786.852 481.571 789.859C489.707 791.378 493.774 796.033 493.774 803.824C493.774 815.941 487.372 822 474.567 822H449.259ZM474.095 815.555C481.428 815.555 485.095 811.831 485.095 804.383C485.095 797.135 480.182 793.512 470.356 793.512H466.919V788.312C478.664 786.737 484.536 782.497 484.536 775.594C484.536 769.865 481.27 767 474.739 767H457.208V815.555H474.095Z" fill="#161616"/>
	<path d="M508.167 822V760.555H534.378C546.066 760.555 551.909 765.467 551.909 775.293C551.909 783.285 546.195 789.201 534.765 793.039L555.862 822H545.378L525.827 794.371V789.172C537.572 787.31 543.445 782.798 543.445 775.637C543.445 769.965 540.179 767.129 533.648 767.129H516.116V822H508.167Z" fill="#161616"/>
	<path d="M565.615 798.281V760.555H573.564V798.281C573.564 810.083 579.436 815.984 591.181 815.984C602.926 815.984 608.798 810.083 608.798 798.281V760.555H616.747V798.281C616.747 814.38 608.225 822.43 591.181 822.43C574.137 822.43 565.615 814.38 565.615 798.281Z" fill="#161616"/>
	<path d="M631.828 819.852V812.547C638.273 814.839 645.234 815.984 652.711 815.984C663.281 815.984 668.566 812.117 668.566 804.383C668.566 797.794 664.67 794.5 656.879 794.5H648.972C636.11 794.5 629.679 788.914 629.679 777.742C629.679 765.997 637.915 760.125 654.386 760.125C661.548 760.125 668.208 760.984 674.367 762.703V770.008C668.208 767.716 661.548 766.57 654.386 766.57C643.215 766.57 637.629 770.294 637.629 777.742C637.629 784.331 641.41 787.625 648.972 787.625H656.879C669.97 787.625 676.515 793.211 676.515 804.383C676.515 816.414 668.58 822.43 652.711 822.43C645.234 822.43 638.273 821.57 631.828 819.852Z" fill="#161616"/>
	<path d="M712.692 798.281V760.555H720.641V798.281C720.641 810.083 726.513 815.984 738.258 815.984C750.003 815.984 755.875 810.083 755.875 798.281V760.555H763.824V798.281C763.824 814.38 755.302 822.43 738.258 822.43C721.214 822.43 712.692 814.38 712.692 798.281Z" fill="#161616"/>
	<path d="M779.764 822V760.555H805.975C817.662 760.555 823.506 765.324 823.506 774.863C823.506 781.853 819.696 786.852 812.077 789.859C820.212 791.378 824.28 796.033 824.28 803.824C824.28 815.941 817.877 822 805.073 822H779.764ZM804.6 815.555C811.933 815.555 815.6 811.831 815.6 804.383C815.6 797.135 810.687 793.512 800.862 793.512H797.424V788.312C809.169 786.737 815.041 782.497 815.041 775.594C815.041 769.865 811.776 767 805.245 767H787.713V815.555H804.6Z" fill="#161616"/>
</svg>
